<?xml version="1.0" encoding="UTF-8"?>
<svg viewBox="0 0 900 326" width="900" height="326" xmlns="http://www.w3.org/2000/svg" role="img" aria-label="The annotator starts with an empty screen. A screen-sharing app connects the two machines and the host's screen appears in a window. Remote Annotate then connects them as well, and its target area is moved and resized until it matches that shared image; pressing Start turns the border red and begins annotating. Three clicks and a circle drawn around a block of code appear on the host's real screen as they are made, each fading on its own.">
  <title>Remote Annotate — how a session runs</title>

  <defs>
    <!-- An abstract dark-mode code editor: whatever is on the host's screen. Drawn once,
         placed twice — full size on the host, shrunk into the annotator's share window. -->
    <g id="ide">
      <rect x="0" y="0" width="300" height="190" fill="#1E1E1E" />

      <rect x="0" y="0" width="13" height="190" fill="#333333" />
      <rect x="4" y="8" width="5" height="5" rx="1" fill="#6E6E6E" />
      <rect x="4" y="19" width="5" height="5" rx="1" fill="#6E6E6E" />
      <rect x="4" y="30" width="5" height="5" rx="1" fill="#6E6E6E" />
      <rect x="4" y="41" width="5" height="5" rx="1" fill="#6E6E6E" />
      <rect x="4" y="176" width="5" height="5" rx="1" fill="#6E6E6E" />

      <rect x="13" y="0" width="63" height="190" fill="#252526" />
      <rect x="20" y="9" width="30" height="3" rx="1.5" fill="#4A4A4A" />
      <g fill="#3C3C3C">
        <rect x="20" y="22" width="30" height="3" rx="1.5" />
        <rect x="24" y="31" width="26" height="3" rx="1.5" />
        <rect x="24" y="40" width="22" height="3" rx="1.5" />
        <rect x="20" y="49" width="34" height="3" rx="1.5" />
        <rect x="24" y="58" width="28" height="3" rx="1.5" />
        <rect x="24" y="67" width="20" height="3" rx="1.5" />
        <rect x="20" y="76" width="32" height="3" rx="1.5" />
        <rect x="24" y="85" width="24" height="3" rx="1.5" />
      </g>

      <rect x="76" y="0" width="224" height="13" fill="#252526" />
      <rect x="76" y="0" width="54" height="13" fill="#1E1E1E" />
      <rect x="84" y="5" width="30" height="3" rx="1.5" fill="#9E9E9E" />
      <rect x="138" y="5" width="26" height="3" rx="1.5" fill="#5A5A5A" />
      <rect x="188" y="5" width="22" height="3" rx="1.5" fill="#5A5A5A" />

      <g fill="#3A3A3A">
        <rect x="80" y="24.25" width="5" height="2.5" rx="1.25" />
        <rect x="80" y="33.25" width="5" height="2.5" rx="1.25" />
        <rect x="80" y="42.25" width="5" height="2.5" rx="1.25" />
        <rect x="80" y="51.25" width="5" height="2.5" rx="1.25" />
        <rect x="80" y="60.25" width="5" height="2.5" rx="1.25" />
        <rect x="80" y="69.25" width="5" height="2.5" rx="1.25" />
        <rect x="80" y="78.25" width="5" height="2.5" rx="1.25" />
        <rect x="80" y="87.25" width="5" height="2.5" rx="1.25" />
        <rect x="80" y="96.25" width="5" height="2.5" rx="1.25" />
        <rect x="80" y="105.25" width="5" height="2.5" rx="1.25" />
        <rect x="80" y="114.25" width="5" height="2.5" rx="1.25" />
        <rect x="80" y="123.25" width="5" height="2.5" rx="1.25" />
        <rect x="80" y="132.25" width="5" height="2.5" rx="1.25" />
        <rect x="80" y="141.25" width="5" height="2.5" rx="1.25" />
        <rect x="80" y="150.25" width="5" height="2.5" rx="1.25" />
        <rect x="80" y="159.25" width="5" height="2.5" rx="1.25" />
        <rect x="80" y="168.25" width="5" height="2.5" rx="1.25" />
      </g>

      <g>
        <rect x="92" y="24" width="14" height="3" rx="1.5" fill="#C586C0" />
        <rect x="109" y="24" width="22" height="3" rx="1.5" fill="#4EC9B0" />
        <rect x="134" y="24" width="8" height="3" rx="1.5" fill="#D4D4D4" />

        <rect x="92" y="33" width="58" height="3" rx="1.5" fill="#6A9955" />

        <rect x="100" y="42" width="10" height="3" rx="1.5" fill="#569CD6" />
        <rect x="113" y="42" width="26" height="3" rx="1.5" fill="#9CDCFE" />
        <rect x="142" y="42" width="6" height="3" rx="1.5" fill="#D4D4D4" />
        <rect x="151" y="42" width="34" height="3" rx="1.5" fill="#CE9178" />

        <rect x="100" y="51" width="12" height="3" rx="1.5" fill="#569CD6" />
        <rect x="115" y="51" width="30" height="3" rx="1.5" fill="#DCDCAA" />
        <rect x="148" y="51" width="5" height="3" rx="1.5" fill="#D4D4D4" />

        <rect x="108" y="60" width="16" height="3" rx="1.5" fill="#C586C0" />
        <rect x="127" y="60" width="20" height="3" rx="1.5" fill="#9CDCFE" />
        <rect x="150" y="60" width="7" height="3" rx="1.5" fill="#D4D4D4" />
        <rect x="160" y="60" width="10" height="3" rx="1.5" fill="#B5CEA8" />

        <rect x="116" y="69" width="26" height="3" rx="1.5" fill="#DCDCAA" />
        <rect x="145" y="69" width="40" height="3" rx="1.5" fill="#CE9178" />

        <rect x="108" y="78" width="6" height="3" rx="1.5" fill="#D4D4D4" />

        <rect x="100" y="96" width="44" height="3" rx="1.5" fill="#6A9955" />

        <rect x="100" y="105" width="10" height="3" rx="1.5" fill="#569CD6" />
        <rect x="113" y="105" width="28" height="3" rx="1.5" fill="#DCDCAA" />
        <rect x="144" y="105" width="5" height="3" rx="1.5" fill="#D4D4D4" />
        <rect x="152" y="105" width="18" height="3" rx="1.5" fill="#9CDCFE" />

        <rect x="108" y="114" width="12" height="3" rx="1.5" fill="#C586C0" />
        <rect x="123" y="114" width="24" height="3" rx="1.5" fill="#9CDCFE" />
        <rect x="150" y="114" width="30" height="3" rx="1.5" fill="#CE9178" />

        <rect x="116" y="123" width="20" height="3" rx="1.5" fill="#DCDCAA" />
        <rect x="139" y="123" width="8" height="3" rx="1.5" fill="#B5CEA8" />
        <rect x="150" y="123" width="5" height="3" rx="1.5" fill="#D4D4D4" />

        <rect x="108" y="132" width="6" height="3" rx="1.5" fill="#D4D4D4" />
        <rect x="100" y="141" width="6" height="3" rx="1.5" fill="#D4D4D4" />

        <rect x="92" y="159" width="14" height="3" rx="1.5" fill="#C586C0" />
        <rect x="109" y="159" width="18" height="3" rx="1.5" fill="#4EC9B0" />
        <rect x="130" y="159" width="8" height="3" rx="1.5" fill="#D4D4D4" />

        <rect x="100" y="168" width="10" height="3" rx="1.5" fill="#569CD6" />
        <rect x="113" y="168" width="22" height="3" rx="1.5" fill="#9CDCFE" />
      </g>

      <g fill="#3A3A3A">
        <rect x="274" y="22" width="18" height="2" />
        <rect x="274" y="32" width="12" height="2" />
        <rect x="274" y="42" width="20" height="2" />
        <rect x="274" y="52" width="15" height="2" />
        <rect x="274" y="62" width="10" height="2" />
        <rect x="274" y="72" width="17" height="2" />
        <rect x="274" y="82" width="13" height="2" />
        <rect x="274" y="92" width="19" height="2" />
        <rect x="274" y="102" width="11" height="2" />
        <rect x="274" y="112" width="16" height="2" />
        <rect x="274" y="122" width="14" height="2" />
        <rect x="274" y="132" width="20" height="2" />
      </g>

      <rect x="0" y="182" width="300" height="8" fill="#2A2A2A" />
      <rect x="6" y="185" width="18" height="2" rx="1" fill="#6E6E6E" />
      <rect x="270" y="185" width="20" height="2" rx="1" fill="#6E6E6E" />
    </g>

    <!-- The four L-shaped resize grips of the target-area window, as in TargetRegionWindow. -->
    <path id="grip" d="M 0 11 L 0 0 L 11 0" />

    <marker id="arrow-muted" viewBox="0 0 10 10" refX="8.5" refY="5"
            markerWidth="6" markerHeight="6" orient="auto-start-reverse">
      <path class="arrow-share" d="M 0 1 L 9 5 L 0 9 z" fill="#8F8F8F" />
    </marker>
    <marker id="arrow-accent" viewBox="0 0 10 10" refX="8.5" refY="5"
            markerWidth="6" markerHeight="6" orient="auto-start-reverse">
      <path class="arrow-pointer" d="M 0 1 L 9 5 L 0 9 z" fill="#60CDFF" />
    </marker>

    <style>
      .card      { fill: #1B1B1B; stroke: #303030; stroke-width: 1; }
      .bezel     { fill: #383838; }
      .desktop   { fill: #242424; }
      .screen-name { fill: #E0E0E0; font-family: "Segoe UI", -apple-system, sans-serif; font-size: 15px; font-weight: 600; text-anchor: middle; }
      .link-label  { font-family: "Segoe UI", -apple-system, sans-serif; font-size: 11.5px; text-anchor: middle; }
      .win-title   { fill: #8F8F8F; font-family: "Segoe UI", -apple-system, sans-serif; font-size: 8px; }
      .wire        { fill: none; stroke-width: 1.6; stroke-dasharray: 5 4; }

      /* One 14.5s cycle. It opens on two unconnected machines and builds the setup up a
         piece at a time; each link lights as it is introduced. Calibration and the cursor
         run off keyframe percentages, while every mark reuses one short lifecycle and is
         placed in the cycle by its delay. */
      .link-share    { opacity: 0; animation: link-share-show 14.5s linear infinite; }
      .link-pointer  { opacity: 0; animation: link-pointer-show 14.5s linear infinite; }
      .share-window  { opacity: 0; transform-box: view-box; transform-origin: 718px 138.5px;
                       animation: window-pop 14.5s ease-out infinite; }

      .wire-share    { stroke: #8F8F8F;
                       animation: ants 0.9s linear infinite, share-lit-stroke 14.5s linear infinite; }
      .link-muted    { fill: #8F8F8F;   animation: share-lit-fill 14.5s linear infinite; }
      .arrow-share   { fill: #8F8F8F;   animation: share-lit-fill 14.5s linear infinite; }

      /* The Remote Annotate link carries the annotation colour while a gesture is going
         over it, so it is visible that this is what reaches the host. */
      .wire-pointer  { stroke: #60CDFF;
                       animation: ants 0.9s linear infinite, pointer-lit-stroke 14.5s linear infinite; }
      .link-accent   { fill: #60CDFF; font-weight: 600;
                       animation: pointer-lit-fill 14.5s linear infinite; }
      .arrow-pointer { fill: #60CDFF;   animation: pointer-lit-fill 14.5s linear infinite; }

      .cursor    { animation: cursor-path 14.5s ease-in-out infinite, cursor-show 14.5s linear infinite; }
      .calib     { transform-box: view-box; transform-origin: 0 0;
                   animation: calib-path 14.5s ease-in-out infinite, calib-show 14.5s linear infinite; }
      .frame     { fill: rgba(0, 0, 0, 0.09); animation: frame-state 14.5s linear infinite; }
      .chrome    { fill: none; stroke: #F5F5F5; stroke-linecap: round; stroke-linejoin: round;
                   opacity: 0.4; animation: chrome-hide 14.5s linear infinite; }
      .buttons   { animation: chrome-hide-solid 14.5s linear infinite; }
      .btn-start { animation: btn-press 14.5s linear infinite; }

      .mark   { fill: none; stroke: #FF5C5C; stroke-width: 3; stroke-linecap: round; stroke-linejoin: round; }
      .dot    { fill: #FF5C5C; opacity: 0; animation: pop 14.5s linear infinite; }
      .ripple { fill: none; stroke: #FF5C5C; stroke-width: 2.5; opacity: 0; }
      .curve  { stroke-dasharray: 1; stroke-dashoffset: 1; opacity: 0;
                animation: draw 14.5s linear infinite; }
      .ripple-a { animation: ripple-a 14.5s ease-out infinite; }
      .ripple-h { animation: ripple-h 14.5s ease-out infinite; }

      /* Clicks land at 8.00 / 8.45 / 8.90s and the circle starts at 9.55s. Each mark and
         its copy on the host share one delay, so both screens show it at the same instant. */
      .t-1 { animation-delay: 8.00s; }
      .t-2 { animation-delay: 8.45s; }
      .t-3 { animation-delay: 8.90s; }
      .t-c { animation-delay: 9.55s; }

      @keyframes ants { to { stroke-dashoffset: -18; } }

      /* Setup, one piece at a time: the screen share connects, its window opens on the
         annotator, then Remote Annotate connects and its target area appears. */
      @keyframes link-share-show {
        0%, 1.72%     { opacity: 0; }
        4.48%, 88.97% { opacity: 1; }
        94.48%, 100%  { opacity: 0; }
      }
      @keyframes link-pointer-show {
        0%, 12.41%     { opacity: 0; }
        15.17%, 88.97% { opacity: 1; }
        94.48%, 100%   { opacity: 0; }
      }
      @keyframes window-pop {
        0%, 8.28%    { opacity: 0; transform: scale(0.88); }
        10.00%       { opacity: 1; transform: scale(1.03); }
        10.69%       { opacity: 1; transform: scale(1); }
        88.97%       { opacity: 1; transform: scale(1); }
        94.48%, 100% { opacity: 0; transform: scale(1); }
      }

      @keyframes share-lit-stroke {
        0%, 4.48%   { stroke: #8F8F8F; stroke-width: 1.6; }
        5.17%       { stroke: #E8E8E8; stroke-width: 2.4; }
        7.93%, 100% { stroke: #8F8F8F; stroke-width: 1.6; }
      }
      @keyframes share-lit-fill {
        0%, 4.48%   { fill: #8F8F8F; }
        5.17%       { fill: #E8E8E8; }
        7.93%, 100% { fill: #8F8F8F; }
      }

      /* Its own introduction, then one pulse per click and a hold for the whole drag —
         the link is red exactly while something is travelling down it. */
      @keyframes pointer-lit-stroke {
        0%, 15.17%     { stroke: #60CDFF; stroke-width: 1.6; }
        15.52%         { stroke: #CFEFFF; stroke-width: 2.4; }
        18.28%, 55.00% { stroke: #60CDFF; stroke-width: 1.6; }
        55.17%         { stroke: #FF5C5C; }
        57.24%, 58.10% { stroke: #60CDFF; }
        58.28%         { stroke: #FF5C5C; }
        60.35%, 61.20% { stroke: #60CDFF; }
        61.38%         { stroke: #FF5C5C; }
        63.45%, 65.70% { stroke: #60CDFF; }
        65.86%, 75.52% { stroke: #FF5C5C; }
        77.93%, 100%   { stroke: #60CDFF; stroke-width: 1.6; }
      }
      @keyframes pointer-lit-fill {
        0%, 15.17%     { fill: #60CDFF; }
        15.52%         { fill: #CFEFFF; }
        18.28%, 55.00% { fill: #60CDFF; }
        55.17%         { fill: #FF5C5C; }
        57.24%, 58.10% { fill: #60CDFF; }
        58.28%         { fill: #FF5C5C; }
        60.35%, 61.20% { fill: #60CDFF; }
        61.38%         { fill: #FF5C5C; }
        63.45%, 65.70% { fill: #60CDFF; }
        65.86%, 75.52% { fill: #FF5C5C; }
        77.93%, 100%   { fill: #60CDFF; }
      }

      /* Grab the window, drag it over the shared image, pull its bottom-right corner out to
         match, press Start, then tap three times and circle a block of code. */
      @keyframes cursor-path {
        0%,  18.62% { transform: translate(800px, 205px); }
        23.79%      { transform: translate(725px, 162px); }
        25.52%      { transform: translate(725px, 162px); }
        32.76%      { transform: translate(688px, 127px); }
        35.52%      { transform: translate(763px, 175px); }
        37.24%      { transform: translate(763px, 175px); }
        44.83%      { transform: translate(823px, 213px); }
        48.62%      { transform: translate(681.6px, 192.7px); }
        51.72%      { transform: translate(681.6px, 192.7px); }
        54.83%      { transform: translate(680px, 165px); }
        58.28%      { transform: translate(708px, 172px); }
        61.38%      { transform: translate(736px, 163px); }
        65.17%      { transform: translate(681px, 131px); }
        65.86%      { transform: translate(681px, 131px);      animation-timing-function: linear; }
        67.07%      { transform: translate(686px, 114.25px);   animation-timing-function: linear; }
        68.28%      { transform: translate(712px, 105px);      animation-timing-function: linear; }
        69.48%      { transform: translate(738px, 111.75px);   animation-timing-function: linear; }
        70.69%      { transform: translate(746px, 126px);      animation-timing-function: linear; }
        71.90%      { transform: translate(732.5px, 137.5px);  animation-timing-function: linear; }
        73.10%      { transform: translate(707px, 140px);      animation-timing-function: linear; }
        74.31%      { transform: translate(687.6px, 135.06px); animation-timing-function: linear; }
        75.52%      { transform: translate(678px, 126px); }
        82.41%      { transform: translate(678px, 126px); }
        87.93%,100% { transform: translate(800px, 205px); }
      }
      @keyframes cursor-show {
        0%, 17.90%     { opacity: 0; }
        19.31%, 82.41% { opacity: 1; }
        87.93%, 100%   { opacity: 0; }
      }

      /* The target area: appears loose, is moved so its top-left meets the shared image,
         then resized until it covers the image exactly. 1.4x is the exact fit. */
      @keyframes calib-path {
        0%,  25.52% { transform: translate(650px, 115px) scale(1); }
        32.76%      { transform: translate(613px, 80px)  scale(1); }
        37.24%      { transform: translate(613px, 80px)  scale(1); }
        44.83%,100% { transform: translate(613px, 80px)  scale(1.4); }
      }
      @keyframes calib-show {
        0%, 18.30%     { opacity: 0; }
        20.69%, 88.97% { opacity: 1; }
        94.48%, 100%   { opacity: 0; }
      }

      /* Blue while calibrating; red only once Start is pressed, as the app does.
         stroke-width is counter-scaled so the 1.4x resize keeps the border weight. */
      @keyframes frame-state {
        0%,  37.24% { stroke: #60CDFF; stroke-width: 3;    fill: rgba(0, 0, 0, 0.09); }
        44.83%      { stroke: #60CDFF; stroke-width: 2.14; fill: rgba(0, 0, 0, 0.09); }
        50.20%      { stroke: #60CDFF; stroke-width: 2.14; fill: rgba(0, 0, 0, 0.09); }
        51.00%,100% { stroke: #FF5C5C; stroke-width: 1.43; fill: rgba(0, 0, 0, 0); }
      }
      /* Grips, move handle and buttons belong to calibration; Start dismisses them. */
      @keyframes chrome-hide {
        0%,  50.20% { opacity: 0.4; }
        51.00%,100% { opacity: 0; }
      }
      @keyframes chrome-hide-solid {
        0%,  50.20% { opacity: 1; }
        51.00%,100% { opacity: 0; }
      }
      @keyframes btn-press {
        0%,  49.80% { opacity: 1; }
        50.34%      { opacity: 0.62; }
        51.00%,100% { opacity: 1; }
      }

      /* One mark's whole life, offset into the cycle by animation-delay: it lands, holds
         about 0.9s, then fades over 0.6s on its own — nothing is ever cleared as a batch. */
      @keyframes pop {
        0%           { opacity: 0; }
        0.28%, 6.48% { opacity: 1; }
        10.58%, 100% { opacity: 0; }
      }
      @keyframes draw {
        0%           { stroke-dashoffset: 1; opacity: 1; }
        9.66%        { stroke-dashoffset: 0; opacity: 1; }
        15.86%       { stroke-dashoffset: 0; opacity: 1; }
        20.00%, 100% { stroke-dashoffset: 0; opacity: 0; }
      }
      @keyframes ripple-a {
        0%          { r: 3;  opacity: 0.85; }
        3.45%, 100% { r: 22; opacity: 0; }
      }
      @keyframes ripple-h {
        0%          { r: 3;  opacity: 0.85; }
        3.45%, 100% { r: 30; opacity: 0; }
      }

      /* Without motion there is no sequence to follow, so show the assembled end state. */
      @media (prefers-reduced-motion: reduce) {
        .wire-share, .wire-pointer, .link-share, .link-pointer, .share-window,
        .link-muted, .link-accent, .arrow-share, .arrow-pointer, .cursor, .calib,
        .frame, .chrome, .buttons, .btn-start, .dot, .curve, .ripple-a, .ripple-h {
          animation: none !important;
        }
        .link-share, .link-pointer { opacity: 1; }
        .share-window { opacity: 1; transform: none; }
        .cursor  { opacity: 0; }
        .calib   { transform: translate(613px, 80px) scale(1.4); opacity: 1; }
        .frame   { stroke: #FF5C5C; stroke-width: 1.43; fill: none; }
        .chrome  { opacity: 0; }
        .buttons { opacity: 0; }
        .dot     { opacity: 1; }
        .curve   { stroke-dashoffset: 0; opacity: 1; }
        .ripple  { opacity: 0; }
      }
    </style>
  </defs>

  <rect class="card" x="0.5" y="0.5" width="899" height="325" rx="14" />

  <!-- Host: their real screen, with the transparent overlay showing what arrives. -->
  <g>
    <rect class="bezel" x="24" y="36" width="316" height="206" rx="8" />
    <use href="#ide" transform="translate(32 44)" opacity="0.5" />
    <rect class="bezel" x="166" y="242" width="32" height="14" />
    <rect class="bezel" x="126" y="256" width="112" height="9" rx="4" />
    <text class="screen-name" x="182" y="290">Host</text>
  </g>

  <!-- Annotator: their own desktop, empty until the screen share opens on it. -->
  <g>
    <rect class="bezel" x="560" y="36" width="316" height="206" rx="8" />
    <rect class="desktop" x="568" y="44" width="300" height="190" />
    <rect class="bezel" x="702" y="242" width="32" height="14" />
    <rect class="bezel" x="662" y="256" width="112" height="9" rx="4" />
    <text class="screen-name" x="718" y="290">Annotator</text>

    <g class="share-window">
      <rect x="613" y="64" width="210" height="149" rx="5" fill="#2D2D2D" />
      <circle cx="622" cy="72" r="2.2" fill="#555555" />
      <circle cx="629.5" cy="72" r="2.2" fill="#555555" />
      <circle cx="637" cy="72" r="2.2" fill="#555555" />
      <text class="win-title" x="647" y="75">Screen share</text>
      <rect x="613" y="80" width="210" height="133" fill="#161616" />
      <use href="#ide" transform="translate(613 80) scale(0.7)" opacity="0.6" />
    </g>
  </g>

  <!-- The two links, side by side between the screens: the screen share carries the
       picture one way, Remote Annotate carries the gestures back the other. -->
  <g class="link-share">
    <text class="link-label link-muted" x="450" y="96">Any Screen Sharing App</text>
    <line class="wire wire-share" x1="348" y1="108" x2="546" y2="108" marker-end="url(#arrow-muted)" />
  </g>
  <g class="link-pointer">
    <text class="link-label link-accent" x="450" y="158">Remote Annotate</text>
    <line class="wire wire-pointer" x1="552" y1="170" x2="354" y2="170" marker-end="url(#arrow-accent)" />
  </g>

  <!-- Target area window, drawn at its own origin so one transform moves and resizes it. -->
  <g class="calib">
    <rect class="frame" x="0" y="0" width="150" height="95" rx="4" />
    <g class="chrome" stroke-width="2">
      <use href="#grip" transform="translate(6 6)" />
      <use href="#grip" transform="translate(144 6) scale(-1 1)" />
      <use href="#grip" transform="translate(6 89) scale(1 -1)" />
      <use href="#grip" transform="translate(144 89) scale(-1 -1)" />
      <g transform="translate(75 47.5)">
        <path d="M -9 0 L 9 0 M 0 -9 L 0 9
                 M -9 0 L -6 -3 M -9 0 L -6 3
                 M  9 0 L  6 -3 M  9 0 L  6 3
                 M 0 -9 L -3 -6 M 0 -9 L 3 -6
                 M 0  9 L -3  6 M 0  9 L 3  6" />
      </g>
    </g>
    <!-- The calibration controls: the accent-filled Start button, then the outlined
         secondaries it has to out-rank. Unlabelled — at this size the shapes carry it. -->
    <g class="buttons">
      <rect class="btn-start" x="37" y="76" width="24" height="9" rx="4.5" fill="#60CDFF" />
      <rect x="64.5" y="76.5" width="1" height="8" fill="#FFFFFF" opacity="0.22" />
      <g fill="#202020" fill-opacity="0.35" stroke="#FFFFFF" stroke-opacity="0.3" stroke-width="0.7">
        <rect x="69" y="77" width="13" height="7" rx="3.5" />
        <rect x="85" y="77" width="11" height="7" rx="3.5" />
        <rect x="99" y="77" width="13" height="7" rx="3.5" />
      </g>
    </g>
  </g>

  <!-- What gets drawn. Drawing opacity dims the annotator's own copy, so the one
       coming back from the host stays the readable one. -->
  <g opacity="0.5">
    <circle class="dot t-1" cx="680" cy="165" r="4" />
    <circle class="ripple ripple-a t-1" cx="680" cy="165" r="3" />
    <circle class="dot t-2" cx="708" cy="172" r="4" />
    <circle class="ripple ripple-a t-2" cx="708" cy="172" r="3" />
    <circle class="dot t-3" cx="736" cy="163" r="4" />
    <circle class="ripple ripple-a t-3" cx="736" cy="163" r="3" />
    <path class="mark curve t-c" pathLength="1"
          d="M 681 131 C 675 121 690 105 712 105
                       C 733 105 749 116 746 126
                       C 743 136 726 142 707 140
                       C 692 138.5 680 133 678 126" />
  </g>
  <g>
    <circle class="dot t-1" cx="127.71" cy="165.43" r="5" />
    <circle class="ripple ripple-h t-1" cx="127.71" cy="165.43" r="3" />
    <circle class="dot t-2" cx="167.71" cy="175.43" r="5" />
    <circle class="ripple ripple-h t-2" cx="167.71" cy="175.43" r="3" />
    <circle class="dot t-3" cx="207.71" cy="162.57" r="5" />
    <circle class="ripple ripple-h t-3" cx="207.71" cy="162.57" r="3" />
    <path class="mark curve t-c" pathLength="1" stroke-width="4"
          d="M 129.14 116.86 C 120.57 102.57 142 79.71 173.43 79.71
                              C 203.43 79.71 226.29 95.43 222 109.71
                              C 217.71 124 193.43 132.57 166.29 129.71
                              C 144.86 127.57 127.71 119.71 124.86 109.71" />
  </g>

  <g class="cursor">
    <path d="M 0 0 L 0 16 L 4 12 L 7 18 L 9.5 17 L 6.5 11 L 12 11 Z"
          fill="#F5F5F5" stroke="#1B1B1B" stroke-width="1" stroke-linejoin="round" />
  </g>
</svg>
